HIERARCHY
ROOT Hips
{
	OFFSET 0.00 0.00 0.00
	CHANNELS 6 Xposition Yposition Zposition Yrotation Xrotation Zrotation
	JOINT Spine
	{
		OFFSET	0.0000	9.2263	1.5771
		CHANNELS 3 Xrotation Yrotation Zrotation
		JOINT Spine1
		{
			OFFSET	0.0000	16.2540	-0.1656
			CHANNELS 3 Xrotation Yrotation Zrotation
			JOINT Spine2
			{
				OFFSET	0.0000	13.6396	-1.2923
				CHANNELS 3 Xrotation Yrotation Zrotation
				JOINT Neck
				{
					OFFSET	0.0000	13.8774	-4.3542
					CHANNELS 3 Xrotation Yrotation Zrotation
					JOINT Neck1
					{
						OFFSET	0.0000	4.3400	0.9269
						CHANNELS 3 Xrotation Yrotation Zrotation
						JOINT Head
						{
							OFFSET	0.0000	4.0266	0.8585
							CHANNELS 3 Xrotation Yrotation Zrotation
							End Site
							{
								OFFSET 0.0000 23.0297 0.1231
							}
						}
					}
				}
				JOINT LeftShoulder
				{
					OFFSET	6.1442	10.1870	-3.7932
					CHANNELS 3 Zrotation Xrotation Yrotation
					JOINT LeftArm
					{
						OFFSET	12.3191	-1.1130	-1.7935
						CHANNELS 3 Zrotation Xrotation Yrotation
						JOINT LeftForeArm
						{
							OFFSET	27.6870	0.0000	0.0000
							CHANNELS 3 Xrotation Zrotation Yrotation
							JOINT LeftHand
							{
								OFFSET	27.8738	0.0000	0.0000
								CHANNELS 3 Zrotation Yrotation Xrotation
								JOINT LeftHandThumb1
								{
									OFFSET	2.3785	-1.0029	2.6209
									CHANNELS 3 Zrotation Xrotation Yrotation
									JOINT LeftHandThumb2
									{
										OFFSET	3.3624	-1.0029	2.8398
										CHANNELS 3 Zrotation Xrotation Yrotation
										JOINT LeftHandThumb3
										{
											OFFSET	4.5018	-1.3445	2.1783
											CHANNELS 3 Zrotation Xrotation Yrotation
											End Site
											{
												OFFSET 2.6000 -1.0000 1.0000
											}
										}
									}
								}
								JOINT LeftHandMiddle1
								{
									OFFSET	10.4639	0.6148	0.4298
									CHANNELS 3 Zrotation Xrotation Yrotation
									JOINT LeftHandMiddle2
									{
										OFFSET	5.7921	0.0000	0.0000
										CHANNELS 3 Zrotation Xrotation Yrotation
										JOINT LeftHandMiddle3
										{
											OFFSET	3.7132	0.0000	0.0000
											CHANNELS 3 Zrotation Xrotation Yrotation
											End Site
											{
												OFFSET 2.3000 0.0000 0.0000
											}
										}
									}
								}
								JOINT LeftHandIndex1
								{
									OFFSET	10.3945	0.6148	2.7055
									CHANNELS 3 Zrotation Xrotation Yrotation
									JOINT LeftHandIndex2
									{
										OFFSET	5.5493	0.0000	0.0000
										CHANNELS 3 Zrotation Xrotation Yrotation
										JOINT LeftHandIndex3
										{
											OFFSET	3.3911	0.0000	0.0000
											CHANNELS 3 Zrotation Xrotation Yrotation
											End Site
											{
												OFFSET 2.5000 0.0000 0.0000
											}
										}
									}
								}
								JOINT LeftHandRing1
								{
									OFFSET	10.3252	0.3211	-1.8755
									CHANNELS 3 Zrotation Xrotation Yrotation
									JOINT LeftHandRing2
									{
										OFFSET	5.4452	0.0000	0.0000
										CHANNELS 3 Zrotation Xrotation Yrotation
										JOINT LeftHandRing3
										{
											OFFSET	3.7132	0.0000	0.0000
											CHANNELS 3 Zrotation Xrotation Yrotation
											End Site
											{
												OFFSET 2.0000 0.0000 0.0000
											}
										}
									}
								}
								JOINT LeftHandPinky1
								{
									OFFSET	10.0130	-0.0783	-3.9671
									CHANNELS 3 Zrotation Xrotation Yrotation
									JOINT LeftHandPinky2
									{
										OFFSET	3.6763	0.0000	0.0000
										CHANNELS 3 Zrotation Xrotation Yrotation
										JOINT LeftHandPinky3
										{
											OFFSET	2.8113	0.0000	0.0000
											CHANNELS 3 Zrotation Xrotation Yrotation
											End Site
											{
												OFFSET 2.9000 0.0000 0.0000
											}
										}
									}
								}
							}
						}
					}
				}
				JOINT RightShoulder
				{
					OFFSET	-6.1402	10.1870	-3.7932
					CHANNELS 3 Zrotation Xrotation Yrotation
					JOINT RightArm
					{
						OFFSET	-12.3231	-1.1130	-1.7935
						CHANNELS 3 Zrotation Xrotation Yrotation
						JOINT RightForeArm
						{
							OFFSET	-27.6870	0.0000	0.0000
							CHANNELS 3 Xrotation Zrotation Yrotation
							JOINT RightHand
							{
								OFFSET	-27.8738	0.0000	0.0000
								CHANNELS 3 Zrotation Yrotation Xrotation
								JOINT RightHandThumb1
								{
									OFFSET	-2.5178	-0.9367	2.5137
									CHANNELS 3 Zrotation Xrotation Yrotation
									JOINT RightHandThumb2
									{
										OFFSET	-3.2638	-1.0870	2.9669
										CHANNELS 3 Zrotation Xrotation Yrotation
										JOINT RightHandThumb3
										{
											OFFSET	-4.4165	-1.3703	2.1350
											CHANNELS 3 Zrotation Xrotation Yrotation
											End Site
											{
												OFFSET -2.6000 -1.0000 1.0000
											}
										}
									}
								}
								JOINT RightHandIndex1
								{
									OFFSET	-10.4665	0.4896	2.7120
									CHANNELS 3 Zrotation Xrotation Yrotation
									JOINT RightHandIndex2
									{
										OFFSET	-5.3768	0.0000	0.0000
										CHANNELS 3 Zrotation Xrotation Yrotation
										JOINT RightHandIndex3
										{
											OFFSET	-3.3855	0.0000	0.0000
											CHANNELS 3 Zrotation Xrotation Yrotation
											End Site
											{
												OFFSET -2.6000 0.0000 0.0000
											}
										}
									}
								}
								JOINT RightHandMiddle1
								{
									OFFSET	-10.7596	0.4896	0.4278
									CHANNELS 3 Zrotation Xrotation Yrotation
									JOINT RightHandMiddle2
									{
										OFFSET	-5.6168	0.0000	0.0000
										CHANNELS 3 Zrotation Xrotation Yrotation
										JOINT RightHandMiddle3
										{
											OFFSET	-3.7364	0.0000	0.0000
											CHANNELS 3 Zrotation Xrotation Yrotation
											End Site
											{
												OFFSET -2.3000 0.0000 0.0000
											}
										}
									}
								}
								JOINT RightHandRing1
								{
									OFFSET	-10.4702	0.3879	-1.9363
									CHANNELS 3 Zrotation Xrotation Yrotation
									JOINT RightHandRing2
									{
										OFFSET	-5.4013	0.0000	0.0000
										CHANNELS 3 Zrotation Xrotation Yrotation
										JOINT RightHandRing3
										{
											OFFSET	-3.3916	0.0000	0.0000
											CHANNELS 3 Zrotation Xrotation Yrotation
											End Site
											{
												OFFSET -2.2000 0.0000 0.0000
											}
										}
									}
								}
								JOINT RightHandPinky1
								{
									OFFSET	-9.9715	-0.1191	-3.9540
									CHANNELS 3 Zrotation Xrotation Yrotation
									JOINT RightHandPinky2
									{
										OFFSET	-3.6528	0.0000	0.0000
										CHANNELS 3 Zrotation Xrotation Yrotation
										JOINT RightHandPinky3
										{
											OFFSET	-2.7820	0.0000	0.0000
											CHANNELS 3 Zrotation Xrotation Yrotation
											End Site
											{
												OFFSET -2.9000 0.0000 0.0000
											}
										}
									}
								}
							}
						}
					}
				}
			}
		}
	}
	JOINT LeftUpLeg
	{
		OFFSET	9.6338	-3.2733	0.0000
		CHANNELS 3 Xrotation Yrotation Zrotation
		JOINT LeftLeg
		{
			OFFSET	0.0000	-41.7300	-1.7300
			CHANNELS 3 Xrotation Yrotation Zrotation
			JOINT LeftFoot
			{
				OFFSET	0.0126	-39.1900	-0.8477
				CHANNELS 3 Xrotation Yrotation Zrotation
				JOINT LeftToeBase
				{
					OFFSET	-0.1833	-12.1931	8.2823
					CHANNELS 3 Xrotation Yrotation Zrotation
					End Site
					{
						OFFSET 0.0000 0.0000 10.1681
					}
				}
			}
		}
	}
	JOINT RightUpLeg
	{
		OFFSET	-9.6338	-3.2733	0.0000
		CHANNELS 3 Xrotation Yrotation Zrotation
		JOINT RightLeg
		{
			OFFSET	0.0000	-41.7300	-1.7300
			CHANNELS 3 Xrotation Yrotation Zrotation
			JOINT RightFoot
			{
				OFFSET	0.0126	-39.1900	-0.8477
				CHANNELS 3 Xrotation Yrotation Zrotation
				JOINT RightToeBase
				{
					OFFSET	-0.1833	-12.1931	8.2823
					CHANNELS 3 Xrotation Yrotation Zrotation
					End Site
					{
						OFFSET 0.0032 0.0000 10.1681
					}
				}
			}
		}
	}
}
MOTION
Frames: 8
Frame Time: 0.0333333
3.7707 86.1827 12.1769 -39.5383 -5.9581 -1.3107 13.0419 2.3586 -1.2668 9.3055 2.2729 -0.6558 9.3019 2.2850 -0.6704 13.8562 2.4478 -2.7773 -0.0000 0.0000 -0.0000 -7.2591 13.5819 -2.3067 -2.2525 2.5157 -9.8311 -64.4920 -26.5041 -55.8116 -0.0000 0.0000 -104.1996 22.9543 -11.3024 9.6059 -3.6353 2.9007 8.2269 -6.3314 -0.1381 17.8159 -7.7476 8.4524 46.2672 -59.7700 1.2773 0.2844 -70.5606 -0.6774 0.9574 -27.9031 -0.1180 0.4751 -57.2939 0.9248 2.6505 -64.2079 -0.5735 0.9141 -19.9477 -0.0609 0.3464 -69.6317 1.7657 -0.3520 -67.7328 -0.6305 0.9395 -30.9698 -0.1447 0.5224 -71.6481 1.9367 2.1302 -68.2114 3.1554 -0.5761 -27.9706 -0.1186 0.4762 -2.3689 7.7932 11.6146 66.4598 -0.1384 74.4792 0.0000 -0.0035 89.9222 -8.0614 17.4887 24.7621 2.2690 0.0777 -20.3850 -0.1219 0.1619 0.4286 -5.1803 6.3514 -26.2924 60.4814 0.8213 4.7483 69.4088 -1.4814 -2.1389 21.8354 -0.1639 -0.8497 69.5438 0.7211 -0.4925 69.7115 -1.4927 -2.1431 24.9663 -0.2110 -0.9648 73.5543 0.0344 -1.8544 68.3588 -1.4423 -2.1238 29.8396 -0.3007 -1.1372 78.8751 -0.0257 -4.0455 66.3960 -1.3701 -2.0937 31.0424 -0.3272 -1.1781 -32.8987 8.0014 19.5922 53.0963 2.7545 -0.1291 -13.6723 1.3988 -9.6162 -0.1254 -0.0000 0.0000 -11.1045 -11.0700 -16.8891 46.3739 -0.0765 -5.2513 -27.7814 -5.2382 18.8932 -0.0000 0.0000 -0.0000 
3.9601 85.8052 12.3291 -39.9915 -6.0092 -1.5236 13.4330 2.4330 -1.4834 9.5456 2.3322 -0.7020 9.5417 2.3452 -0.7180 13.7457 2.5089 -3.0241 -0.0000 0.0000 -0.0000 -7.7953 13.7815 -2.2790 -2.1031 2.4379 -9.5497 -64.8215 -26.6435 -55.7365 0.0000 -0.0001 -103.8575 22.7892 -11.4133 9.4081 -3.4740 2.9652 8.3743 -6.3521 -0.1363 17.8937 -7.7745 8.4560 46.3353 -59.8899 1.2702 0.3160 -70.6365 -0.6786 0.9578 -27.8926 -0.1179 0.4749 -57.4398 0.9386 2.6837 -64.2440 -0.5741 0.9144 -19.9559 -0.0610 0.3465 -69.7455 1.7514 -0.3201 -67.7751 -0.6312 0.9398 -30.9593 -0.1446 0.5223 -71.8193 1.9434 2.0860 -68.2382 3.1556 -0.5742 -27.9429 -0.1184 0.4757 -2.0882 8.1550 12.3237 66.1900 -0.3265 75.3102 -0.0000 -0.0004 89.1745 -8.7721 17.6255 24.7498 2.1989 0.0622 -20.3639 -0.1404 0.1753 0.3469 -5.1895 6.3134 -26.1726 60.5361 0.8483 4.7640 69.4892 -1.4844 -2.1400 21.7750 -0.1630 -0.8474 69.6354 0.7208 -0.4691 69.7426 -1.4939 -2.1436 24.9226 -0.2096 -0.9634 73.5031 0.0326 -1.8164 68.4010 -1.4439 -2.1244 29.8246 -0.2999 -1.1367 78.7323 -0.0026 -4.1549 66.4201 -1.3709 -2.0941 31.0311 -0.3269 -1.1777 -33.5634 8.0795 20.3000 54.5456 2.3968 -0.4504 -14.4938 1.4370 -9.3237 -0.6533 0.0000 0.0000 -11.5979 -10.5758 -16.8118 47.4362 -0.0868 -5.3726 -28.1900 -5.3630 19.1192 -0.0000 0.0000 -0.0000 
3.8466 85.5965 12.0887 -39.9266 -6.0890 -1.8371 13.7705 2.3877 -1.6110 9.7838 2.2854 -0.7705 9.7802 2.2969 -0.7867 13.6376 2.5292 -3.1467 -0.0000 0.0000 -0.0000 -8.2777 13.7669 -2.1611 -2.0233 2.3734 -9.2896 -65.1020 -26.6599 -55.3511 -0.0000 -0.0000 -103.6145 22.8274 -11.4041 8.9821 -3.3562 3.0546 8.5669 -6.3752 -0.1347 17.9797 -7.7883 8.4449 46.3561 -59.9719 1.2696 0.3547 -70.7500 -0.6805 0.9585 -27.8601 -0.1177 0.4744 -57.5662 0.9597 2.7617 -64.2622 -0.5744 0.9145 -19.9750 -0.0611 0.3468 -69.8357 1.7461 -0.3076 -67.8264 -0.6321 0.9402 -30.9571 -0.1446 0.5222 -71.9605 1.9451 2.0115 -68.2470 3.1557 -0.5735 -27.9141 -0.1181 0.4753 -1.5968 8.3967 12.4236 65.7001 0.3166 75.6803 -0.0000 0.0001 88.3020 -9.3842 17.9729 24.1901 2.2060 0.0365 -20.3328 -0.1694 0.1439 0.4699 -5.1998 6.3038 -26.1253 60.3751 0.8661 4.7866 69.4941 -1.4846 -2.1401 21.7132 -0.1621 -0.8452 69.6877 0.7130 -0.4673 69.6983 -1.4922 -2.1430 24.8347 -0.2076 -0.9603 73.3181 0.0279 -1.7888 68.3273 -1.4411 -2.1234 29.8051 -0.2992 -1.1361 78.4680 0.0184 -4.2975 66.3559 -1.3686 -2.0931 30.9389 -0.3251 -1.1745 -34.0728 8.0525 20.9986 55.1275 1.7269 -0.4307 -14.6463 1.4565 -9.2378 -0.9472 -0.0000 0.0000 -11.6758 -10.1381 -16.1490 48.1755 -0.7996 -5.4054 -28.5365 -5.4503 19.2494 -0.1124 0.0000 -0.0000 
3.5232 85.5908 11.4135 -39.0265 -5.9710 -2.1464 14.0096 2.2973 -1.6176 9.9965 2.2136 -0.8643 9.9939 2.2210 -0.8794 13.4699 2.4463 -2.9839 -0.0000 0.0000 -0.0000 -8.8596 13.1568 -1.7532 -2.1341 2.4158 -9.4296 -65.1673 -26.2359 -55.0523 -0.0000 -0.0000 -103.4655 23.1642 -11.1707 8.4381 -3.4791 3.4010 9.2572 -6.4178 -0.1296 18.1431 -7.7674 8.4000 46.2571 -59.9793 1.2796 0.4128 -70.8288 -0.6819 0.9590 -27.8129 -0.1173 0.4737 -57.7041 0.9992 2.9570 -64.2118 -0.5736 0.9141 -20.0146 -0.0613 0.3475 -69.9087 1.7478 -0.3100 -67.8733 -0.6329 0.9405 -30.9680 -0.1447 0.5224 -72.0892 1.9405 1.8617 -68.1841 3.1551 -0.5781 -27.8694 -0.1177 0.4746 -1.1340 8.3543 11.8326 65.2837 1.5389 75.2308 0.0000 -0.0004 87.7000 -9.7548 18.4931 23.6077 2.3698 0.0151 -20.3125 -0.2107 0.0839 0.7154 -5.2175 6.4430 -26.4720 60.1282 0.8835 4.7266 69.4331 -1.4823 -2.1393 21.7081 -0.1620 -0.8450 69.6051 0.7177 -0.5055 69.6136 -1.4890 -2.1418 24.8323 -0.2071 -0.9604 73.0780 0.0364 -1.8414 68.1838 -1.4358 -2.1212 29.6885 -0.2967 -1.1321 78.2225 0.0255 -4.3631 66.1809 -1.3622 -2.0903 30.8255 -0.3227 -1.1706 -34.6191 7.7107 21.3134 54.6008 0.9091 -0.0457 -13.8477 1.4256 -9.3959 -0.8959 0.0000 0.0000 -11.6227 -9.8492 -15.0347 48.6218 -2.3796 -5.2394 -28.7806 -5.4845 19.2635 -0.4305 -0.0000 -0.0000 
3.0644 85.7602 10.3932 -37.6566 -5.6444 -2.3870 14.1597 2.2341 -1.5085 10.1683 2.1709 -0.9110 10.1669 2.1736 -0.9245 13.2198 2.3022 -2.6888 -0.0000 0.0000 -0.0000 -9.6774 12.2281 -1.2528 -2.3695 2.5671 -9.9318 -65.1167 -25.3624 -54.6615 -0.0000 -0.0001 -103.6211 23.5400 -10.8790 8.2768 -3.6907 3.9439 10.3376 -6.4716 -0.1230 18.3505 -7.7556 8.3687 46.1948 -59.9977 1.2881 0.4916 -70.7602 -0.6807 0.9585 -27.7958 -0.1171 0.4734 -57.8705 1.0390 3.2393 -64.1338 -0.5723 0.9135 -20.0702 -0.0617 0.3484 -69.9837 1.7460 -0.3051 -67.8996 -0.6333 0.9407 -31.0153 -0.1451 0.5231 -72.3430 1.9340 1.6690 -68.0390 3.1536 -0.5886 -27.7629 -0.1169 0.4729 -0.8439 8.2850 11.3085 64.5960 2.5631 74.5264 -0.0000 -0.0004 87.4150 -9.9239 18.9212 23.3673 2.5489 -0.0354 -20.2343 -0.2377 0.0704 0.7514 -5.2426 6.6655 -27.0343 59.9624 0.9208 4.5648 69.4801 -1.4840 -2.1399 21.7146 -0.1621 -0.8452 69.4303 0.7353 -0.5746 69.5898 -1.4881 -2.1414 25.0389 -0.2101 -0.9680 73.0727 0.0519 -1.9672 68.1619 -1.4350 -2.1209 29.6315 -0.2953 -1.1302 78.2046 0.0091 -4.2817 66.0872 -1.3588 -2.0887 30.8327 -0.3229 -1.1709 -35.1462 7.2409 21.3071 53.1477 0.1282 0.4802 -12.3178 1.3429 -9.6997 -0.6444 -0.0000 0.0000 -11.6640 -9.7694 -13.8459 48.8062 -4.3470 -4.8204 -28.8413 -5.4377 19.0998 -0.6089 0.0000 -0.0000 
2.5177 85.9647 9.3197 -35.9041 -5.3006 -2.3018 14.1104 2.2771 -1.2394 10.2810 2.2164 -0.8543 10.2814 2.2138 -0.8654 12.8020 2.0580 -2.2997 -0.0000 0.0000 -0.0000 -10.5280 10.8437 -0.8905 -2.8317 2.8932 -10.8480 -64.7768 -23.8753 -53.9619 -0.0000 0.0000 -104.2607 24.5250 -10.3500 8.5642 -3.5361 4.4055 11.3026 -6.5135 -0.1182 18.5113 -7.8489 8.4677 46.5256 -60.2543 1.2887 0.5938 -70.5116 -0.6766 0.9571 -27.8570 -0.1176 0.4744 -58.1322 1.0606 3.5229 -64.0782 -0.5714 0.9131 -20.1034 -0.0619 0.3489 -70.1527 1.7406 -0.2893 -67.9062 -0.6334 0.9407 -31.0449 -0.1454 0.5236 -72.8070 1.9281 1.5488 -67.9319 3.1525 -0.5964 -27.7012 -0.1164 0.4719 -0.3795 8.4988 11.2518 63.2018 3.0774 74.0678 -0.0000 0.0000 87.2926 -9.4569 18.9135 23.7976 2.5452 -0.1088 -20.1037 -0.2481 0.1071 0.5630 -5.2663 6.8811 -27.5795 59.9625 0.9629 4.3535 69.7932 -1.4957 -2.1443 21.7110 -0.1621 -0.8451 69.3729 0.7517 -0.6445 69.7628 -1.4946 -2.1438 25.4264 -0.2160 -0.9821 73.3396 0.0603 -2.0445 68.3847 -1.4433 -2.1242 30.0297 -0.3026 -1.1441 78.6077 -0.0518 -4.0087 66.3420 -1.3681 -2.0929 31.0776 -0.3279 -1.1793 -35.4266 6.7213 20.6726 51.2056 -0.5384 1.1558 -10.4803 1.2399 -10.1730 -0.3195 0.0000 0.0000 -11.8200 -10.1136 -13.2642 49.1524 -5.2953 -4.1067 -29.1019 -5.8862 18.3106 -0.3694 -0.0000 0.0000 
1.9143 86.1467 8.4693 -34.0214 -5.2252 -1.8104 13.9019 2.5136 -0.8479 10.3291 2.4285 -0.6777 10.3316 2.4200 -0.6862 12.1190 1.7154 -1.9132 -0.0000 0.0000 -0.0000 -10.8757 8.9971 -0.8132 -3.5048 3.3457 -11.9019 -64.4066 -21.6697 -53.0534 -0.0000 0.0000 -105.3021 25.9739 -9.7169 9.0786 -2.9079 4.6503 11.9048 -6.5405 -0.1148 18.6156 -8.0299 8.6778 47.1866 -60.7090 1.2876 0.7259 -70.4289 -0.6752 0.9566 -28.0176 -0.1190 0.4769 -58.4422 1.0765 3.7742 -64.1206 -0.5721 0.9134 -20.0525 -0.0615 0.3481 -70.6028 1.7343 -0.2601 -67.9407 -0.6340 0.9409 -30.9804 -0.1448 0.5226 -73.3123 1.9257 1.5472 -67.9668 3.1529 -0.5939 -27.8707 -0.1178 0.4746 0.8147 9.1534 11.6059 61.4210 3.2035 73.9073 -0.0000 -0.0002 87.1097 -9.0090 18.7601 24.9381 2.3944 -0.2200 -19.9067 -0.2519 0.2027 0.0964 -5.2846 7.0974 -28.1349 60.0268 0.9904 4.2194 70.1565 -1.5094 -2.1492 21.6920 -0.1618 -0.8444 69.5701 0.7618 -0.6831 70.0591 -1.5057 -2.1479 25.8327 -0.2219 -0.9970 73.8950 0.0492 -2.0089 68.6928 -1.4547 -2.1287 30.7296 -0.3158 -1.1684 79.1877 -0.1264 -3.6862 66.8068 -1.3851 -2.1002 31.5345 -0.3374 -1.1948 -35.1677 6.3538 19.5215 49.1729 -1.1562 1.8017 -8.7703 1.1349 -10.6562 -0.1070 -0.0000 0.0000 -11.7438 -10.8190 -13.4680 49.5403 -5.5873 -3.3215 -29.6284 -6.2139 17.3790 0.0000 0.0000 -0.0000 
1.3542 86.1851 8.0344 -32.1908 -5.7986 -0.6246 13.5587 2.9934 -0.3969 10.3132 2.8508 -0.3596 10.3181 2.8363 -0.3642 10.7021 1.2424 -1.7730 -0.0000 0.0000 -0.0000 -10.3300 6.2883 -0.9620 -4.4318 3.8552 -12.6557 -64.7130 -18.3902 -51.9204 0.0000 -0.0000 -106.8857 26.7438 -9.9442 9.8120 -1.9924 4.7974 12.3752 -6.5559 -0.1114 18.6773 -8.2091 8.8751 47.8285 -60.9062 1.2978 0.8429 -70.6775 -0.6793 0.9581 -28.3321 -0.1216 0.4818 -58.6606 1.1086 4.0388 -64.2409 -0.5740 0.9144 -19.8574 -0.0604 0.3448 -71.3352 1.7236 -0.2105 -68.0704 -0.6361 0.9418 -30.8794 -0.1439 0.5210 -73.8376 1.9217 1.5493 -68.1015 3.1543 -0.5841 -28.2804 -0.1212 0.4810 2.8241 10.4217 12.1563 59.9818 3.1115 73.8855 -0.0000 -0.0001 87.5412 -9.2844 18.5302 26.7832 2.2625 -0.3913 -19.5970 -0.2638 0.3023 -0.3992 -5.3153 7.3636 -28.8042 60.1100 0.9975 4.1481 70.6853 -1.5292 -2.1563 21.3760 -0.1572 -0.8326 70.0020 0.7582 -0.7283 70.3683 -1.5173 -2.1521 26.2357 -0.2282 -1.0116 74.4571 0.0444 -1.9954 69.3383 -1.4787 -2.1379 31.4107 -0.3287 -1.1919 79.8435 -0.1933 -3.4852 67.2754 -1.4023 -2.1075 31.9388 -0.3459 -1.2085 -34.0941 6.2209 17.6874 47.7120 -1.6087 2.2174 -7.6933 1.0616 -10.9919 -0.0986 -0.0000 -0.0000 -11.2862 -11.8230 -14.9399 50.3255 -5.8677 -2.6351 -30.5516 -6.0103 16.9363 -0.0000 -0.0000 -0.0000 
